<?xml version="1.0" standalone="no"?>
<!DOCTYPE svg PUBLIC "-//W3C//DTD SVG 20010904//EN"
 "http://www.w3.org/TR/2001/REC-SVG-20010904/DTD/svg10.dtd">
<svg version="1.0" xmlns="http://www.w3.org/2000/svg"
 width="657.000000pt" height="369.000000pt" viewBox="0 0 657.000000 369.000000"
 preserveAspectRatio="xMidYMid meet">

<g transform="translate(0.000000,369.000000) scale(0.100000,-0.100000)"
fill="#000000" stroke="none">
<path d="M835 3089 c-24 -79 -29 -184 -12 -247 8 -29 11 -55 7 -57 -18 -11
-79 -114 -101 -170 -20 -52 -23 -77 -23 -195 0 -95 5 -154 17 -198 9 -35 17
-64 17 -65 0 -1 -77 -3 -172 -4 -175 -2 -395 -26 -413 -45 -7 -7 -4 -8 10 -4
61 17 277 36 419 36 167 0 176 -2 176 -39 0 -4 -49 -11 -109 -14 -159 -9 -446
-56 -481 -79 -18 -11 -9 -10 135 20 187 39 475 65 475 42 0 -5 30 -41 66 -80
49 -51 86 -80 138 -105 83 -41 184 -71 267 -81 33 -4 59 -10 59 -14 0 -3 -12
-17 -26 -31 -15 -13 -37 -47 -50 -76 -22 -50 -26 -53 -80 -69 -114 -33 -199 1
-281 111 -74 100 -168 148 -218 111 -19 -13 -18 -14 5 -34 14 -12 41 -35 61
-52 21 -17 55 -65 78 -109 72 -140 143 -178 313 -168 l98 5 0 -141 c0 -159
-10 -191 -70 -222 -46 -24 -37 -49 19 -53 57 -4 124 21 156 59 25 30 25 33 26
207 1 180 12 262 38 270 12 4 13 -34 9 -245 -5 -221 -8 -254 -26 -295 -11 -25
-25 -49 -31 -52 -6 -4 -11 -16 -11 -28 0 -19 4 -20 46 -15 54 6 108 45 136 99
19 36 24 126 27 466 1 92 4 112 16 112 12 0 15 -20 16 -112 3 -340 8 -430 27
-466 28 -54 82 -93 136 -99 42 -5 46 -4 46 15 0 12 -5 24 -11 28 -6 3 -20 27
-31 52 -18 40 -21 74 -26 293 -3 161 -1 249 5 249 27 0 37 -60 42 -257 6 -195
7 -202 30 -227 33 -35 98 -58 152 -54 55 4 65 29 20 53 -62 32 -65 46 -71 300
-5 206 -8 235 -26 275 -12 25 -33 56 -48 69 -14 14 -26 28 -26 31 0 4 28 10
63 14 193 19 364 108 432 224 l30 52 55 0 c80 0 309 -28 425 -52 144 -30 153
-31 135 -20 -36 23 -321 70 -478 78 -133 7 -136 8 -122 34 10 19 21 20 180 20
147 0 364 -19 425 -36 13 -4 17 -3 10 4 -23 22 -341 54 -515 51 -59 -1 -84 2
-82 10 12 54 22 163 22 246 0 151 -28 241 -111 352 l-39 52 11 57 c11 61 6
129 -18 212 -14 49 -16 52 -47 52 -64 0 -210 -57 -288 -111 -25 -19 -30 -19
-120 -3 -112 20 -378 14 -473 -9 l-59 -15 -66 39 c-89 53 -178 87 -244 95
l-54 7 -17 -54z m705 -593 c30 1 136 3 235 5 174 4 182 3 228 -20 49 -24 99
-78 133 -141 26 -48 26 -194 1 -266 -36 -104 -122 -171 -256 -200 -36 -8 -142
-17 -236 -21 -513 -18 -724 88 -728 365 -1 80 22 139 79 201 72 80 121 92 334
83 85 -4 180 -7 210 -6z m-800 -674 c0 -14 -11 -21 -26 -15 -21 8 -17 23 6 23
11 0 20 -4 20 -8z m65 -31 c3 -5 1 -13 -5 -16 -15 -9 -43 3 -35 15 8 13 32 13
40 1z m33 -49 c2 -7 -6 -12 -17 -12 -21 0 -27 11 -14 24 9 9 26 2 31 -12z m40
-54 c-3 -7 -11 -13 -18 -13 -7 0 -15 6 -17 13 -3 7 4 12 17 12 13 0 20 -5 18
-12z m42 -48 c0 -15 -29 -19 -40 -5 -8 10 -8 14 2 18 16 5 38 -2 38 -13z m48
-42 c-3 -7 -11 -13 -18 -13 -7 0 -15 6 -17 13 -3 7 4 12 17 12 13 0 20 -5 18
-12z m220 -15 c2 -8 -5 -13 -17 -13 -12 0 -21 6 -21 16 0 18 31 15 38 -3z
m-150 -11 c2 -7 -6 -12 -17 -12 -21 0 -27 11 -14 24 9 9 26 2 31 -12z m76 -3
c-7 -12 -44 -12 -44 0 0 5 6 11 13 14 17 6 38 -3 31 -14z"/>
<path d="M1172 2323 c-42 -17 -56 -135 -22 -190 54 -89 148 -25 138 94 -7 80
-55 121 -116 96z m11 -37 c9 -22 -4 -56 -19 -56 -21 0 -28 25 -14 49 12 24 26
27 33 7z"/>
<path d="M1831 2304 c-41 -52 -39 -141 4 -188 29 -31 54 -33 88 -5 74 58 43
219 -42 219 -20 0 -36 -9 -50 -26z m30 -47 c-5 -12 -14 -22 -22 -22 -18 0 -24
32 -8 51 17 21 40 -1 30 -29z"/>
<path d="M1514 2066 c-10 -26 4 -48 28 -44 17 2 23 10 23 28 0 18 -6 26 -23
28 -13 2 -25 -3 -28 -12z"/>
<path d="M1470 1967 c0 -21 38 -47 70 -47 32 0 70 26 70 47 0 12 -7 9 -26 -11
-34 -33 -58 -33 -89 0 -18 20 -25 23 -25 11z"/>
<path d="M3850 2617 c-14 -7 -33 -29 -44 -51 -16 -32 -17 -44 -7 -76 25 -83
107 -106 167 -46 28 28 34 42 34 76 0 34 -6 48 -34 76 -37 37 -72 43 -116 21z"/>
<path d="M4520 2126 l0 -495 78 2 77 2 5 233 5 232 30 20 c68 45 140 12 164
-75 6 -22 11 -124 11 -228 l0 -188 83 3 82 3 -1 211 c-2 233 -9 273 -65 358
-58 87 -175 119 -269 73 -18 -10 -35 -17 -37 -17 -1 0 -3 81 -3 180 l0 180
-80 0 -80 0 0 -494z"/>
<path d="M5722 2128 l3 -493 75 0 c68 0 75 2 78 21 l3 21 46 -24 c83 -42 164
-26 234 47 69 71 93 139 93 270 1 134 -18 194 -83 260 -77 80 -147 89 -274 35
-17 -7 -18 3 -15 174 l3 181 -83 0 -82 0 2 -492z m328 -16 c33 -33 46 -96 37
-173 -13 -107 -66 -162 -137 -140 -66 20 -71 32 -68 172 l3 123 34 23 c48 32
95 30 131 -5z"/>
<path d="M4127 2413 c-4 -3 -7 -33 -7 -65 l0 -60 -32 4 -33 3 -3 -72 -3 -73
36 0 35 0 0 -147 c0 -240 22 -323 95 -357 41 -20 139 -23 190 -6 l35 12 0 75
c0 65 -2 74 -16 69 -64 -25 -105 -18 -122 19 -8 16 -12 84 -12 180 l0 155 65
0 65 0 0 70 0 69 -62 3 -63 3 -3 63 -3 62 -78 0 c-43 0 -81 -3 -84 -7z"/>
<path d="M3349 2286 c-134 -48 -196 -200 -135 -332 13 -28 40 -64 59 -80 l35
-28 -19 -24 c-27 -35 -26 -111 3 -147 14 -19 18 -30 11 -32 -25 -9 -77 -49
-97 -76 -16 -22 -21 -43 -21 -96 0 -58 4 -73 27 -103 44 -58 106 -82 225 -86
198 -8 292 60 293 211 0 104 -48 154 -177 183 -87 19 -123 44 -123 84 0 35 26
55 83 66 56 10 116 60 150 124 24 47 28 64 25 117 -3 61 -2 63 25 72 26 10 27
12 27 85 0 42 -1 76 -2 76 -2 0 -25 -7 -52 -15 -61 -19 -100 -19 -151 0 -50
18 -138 18 -186 1z m148 -141 c31 -22 45 -81 32 -129 -24 -86 -155 -82 -174 6
-9 41 2 95 26 119 23 23 85 26 116 4z m43 -600 c54 -28 49 -104 -7 -126 -42
-16 -148 -7 -172 15 -39 35 -22 100 29 119 31 11 122 6 150 -8z"/>
<path d="M3820 1962 l0 -333 78 3 77 3 0 328 0 329 -78 1 -77 2 0 -333z"/>
<path d="M5197 2292 l-79 -3 4 -232 c5 -251 11 -285 65 -355 54 -72 162 -92
247 -47 26 14 48 25 50 25 1 0 2 -10 2 -22 -1 -22 2 -23 79 -23 l80 0 0 329 0
328 -80 0 -80 0 -5 -231 -5 -231 -30 -20 c-33 -22 -76 -26 -107 -9 -41 22 -48
65 -48 283 0 113 -3 206 -7 208 -5 2 -43 2 -86 0z"/>
<path d="M3836 1539 c-22 -17 -26 -28 -24 -57 2 -29 10 -41 38 -59 53 -34 61
-43 58 -61 -4 -23 -46 -27 -67 -8 -17 15 -19 15 -32 0 -12 -14 -10 -19 14 -40
37 -31 81 -31 112 1 36 35 34 86 -5 118 -16 14 -39 29 -51 32 -34 11 -19 40
21 39 31 0 49 10 50 27 0 9 -48 29 -69 29 -10 0 -30 -10 -45 -21z"/>
<path d="M4042 1543 c-42 -20 -66 -66 -65 -124 1 -104 103 -163 190 -109 41
25 55 52 56 109 1 59 -23 104 -67 125 -43 20 -72 20 -114 -1z m102 -54 c53
-42 22 -149 -43 -149 -66 0 -97 95 -46 145 30 30 54 31 89 4z"/>
<path d="M4313 1545 c-50 -21 -75 -69 -70 -133 6 -84 69 -134 147 -117 25 6
30 11 30 36 0 26 -2 29 -19 19 -32 -16 -60 -12 -86 15 -61 60 4 171 81 136 22
-10 24 -9 24 18 0 41 -46 53 -107 26z"/>
<path d="M4616 1552 c-6 -10 -96 -242 -96 -248 0 -2 11 -4 25 -4 17 0 29 8 37
25 9 21 18 25 54 25 38 0 44 -3 50 -25 5 -20 13 -25 36 -25 16 0 28 4 26 9 -1
4 -23 63 -47 130 -34 92 -49 121 -62 121 -10 0 -20 -4 -23 -8z m44 -149 c0 -7
-11 -13 -25 -13 -28 0 -30 4 -13 51 l12 34 12 -30 c7 -17 13 -36 14 -42z"/>
<path d="M5063 1545 c-50 -21 -75 -69 -70 -133 6 -84 69 -134 147 -117 25 6
30 11 30 36 0 26 -2 29 -19 19 -34 -18 -68 -12 -90 16 -53 68 4 165 80 137 28
-11 29 -10 29 17 0 40 -47 52 -107 25z"/>
<path d="M5260 1542 c-116 -57 -75 -251 53 -252 76 0 127 55 127 138 0 58 -25
97 -76 118 -44 18 -62 18 -104 -4z m113 -64 c25 -30 22 -84 -8 -113 -38 -39
-86 -32 -110 16 -22 42 -18 67 15 101 25 24 36 29 58 24 15 -4 35 -16 45 -28z"/>
<path d="M5770 1430 l0 -130 25 0 c23 0 24 2 27 82 l3 82 65 -87 c92 -125 100
-121 100 43 l0 130 -25 0 c-23 0 -24 -2 -27 -81 l-3 -81 -65 86 c-92 123 -100
119 -100 -44z"/>
<path d="M6081 1543 c-88 -44 -89 -193 0 -239 76 -39 169 16 169 101 0 24 -3
25 -55 25 -48 0 -55 -2 -55 -20 0 -15 7 -20 25 -20 28 0 33 -21 10 -40 -24
-20 -67 -15 -87 10 -25 31 -24 100 2 128 25 27 64 28 88 4 14 -14 23 -16 40
-9 28 13 24 26 -18 55 -39 26 -73 28 -119 5z"/>
<path d="M4450 1425 l0 -125 25 0 25 0 0 125 0 125 -25 0 -25 0 0 -125z"/>
<path d="M4770 1425 l0 -125 60 0 c53 0 60 2 60 20 0 16 -7 20 -35 20 l-35 0
0 105 0 105 -25 0 -25 0 0 -125z"/>
<path d="M5469 1548 c-1 -2 -2 -58 -3 -125 l-2 -123 58 0 c38 0 68 6 84 16 74
49 71 179 -6 219 -23 12 -126 22 -131 13z m96 -52 c26 -11 35 -22 40 -48 11
-58 -21 -108 -69 -108 -13 0 -16 15 -16 85 0 47 2 85 5 85 3 0 21 -6 40 -14z"/>
<path d="M5680 1425 l0 -125 30 0 30 0 0 125 0 125 -30 0 -30 0 0 -125z"/>
</g>
</svg>
